<!-- INVADER ATTACK SVG -->
<svg xmlns="https:/www.w3.org/2000/svg" version="1.1" width="200" height="200" viewbox="0 0 12 17">
    <g>
        <polygon points="0 7, 0 4, 1 4, 1 3, 2 3, 2 2, 3 2, 3 0, 2 0, 2 1, 4 1, 4 2, 7 2, 7 1, 9 1, 9 0, 8 0, 8 2, 9 2, 9 3, 10 3, 10 4, 11 4, 11 7, 10 7, 10 5, 9 5, 9 7, 6 7, 6 8, 8 8, 8 6, 3 6, 3 8, 5 8, 5 7, 2 7, 2 5, 1 5, 1 7" fill="#222" />
        <rect width="1" height="1" x="3" y="3" fill="#FFF" />
        <rect width="1" height="1" x="7" y="3" fill="#FFF" />

        <rect width="1" height="2" x="5" y="8" fill="#222">
            <animate attributeType="xml" attributeName="y" values="8;15" begin="2s" dur="1s" repeatCount="indefinite" />
        </rect>
    </g>
</svg>